<svg width="21" height="18" fill="none" xmlns="http://www.w3.org/2000/svg"><path d="M16.464 6.897c-2.826 1.557-2.428 6.251.608 6.304 1.31.023 2.46-.942 2.985-2.192 1.215-2.886-1.166-5.45-3.593-4.112zm-2.885.53c3.358.059 4.46-5.627 1.285-6.62-1.447-.453-3.117.543-3.68 2.407-.63 2.09.507 4.18 2.395 4.213z" fill="#FF7236"/><path d="M12.544 17.565c-.465-.137-1.29-.235-2.157-.262-.916-.03-1.876.02-2.5.18-1.683.439-3.944-.73-3.405-3.068.5-2.16 2.16-2.008 2.588-4.056.431-2.07 1.988-3.046 3.483-2.941 1.384.096 2.715 1.119 3.05 3.055.356 2.063 2.018 1.967 2.444 4.143.462 2.357-1.842 3.44-3.503 2.949zM7.667 7.325c.95.016 1.775-.521 2.243-1.358C11.3 3.48 9.145-.035 6.605.665c-3.212.885-2.295 6.602 1.062 6.66z" fill="#FF7236"/><path d="M6.084 11.142c1.123-2.62-1.379-5.887-3.837-4.915-2.962 1.17-1.753 6.46 1.48 6.517 1.038.018 1.93-.606 2.357-1.602zm6.46 6.423c-.464-.137-1.29-.235-2.157-.262l.166-9.885c1.384.096 2.715 1.119 3.05 3.055.357 2.063 2.018 1.967 2.444 4.143.462 2.357-1.842 3.44-3.503 2.949z" fill="#FF7236"/></svg>