<svg width="64" height="53" fill="none" xmlns="http://www.w3.org/2000/svg"><path d="M8.24 48.672c-.08-.96-.656-1.904-2.24-1.984.976-.128 2.32-2.368 1.744-4.032-.48-1.344-1.92-.816-2.768-.56-.16 1.28.208 3.632-1.216 3.936-.064-.672.064-1.792-.112-2.96-.336-1.936-2.704-1.04-3.248-.8.208 2.144.176 2.72.176 5.296.016.88-.08 2.272 0 3.024.224 2 2.608 1.472 3.264.784 0-.848-.016-2.576-.064-3.536 1.056-.08 1.248.224 1.28 2.464.016 2.24 2.672 1.824 3.456 1.056-.272-.832-.192-1.888-.272-2.688zm1.388-1.648c0 4.64 2.4 5.024 4.08 4.976 1.552 0 4.096-.432 4.112-4.976-.016-3.888-1.744-5.264-4.064-5.264-2.448 0-4.128 1.504-4.128 5.264zm4.128-2.656c.176 0 .848-.256.848 2.544 0 1.824-.288 2.864-.864 2.864-.48 0-.864-.432-.816-2.864 0-2.208.56-2.544.832-2.544zm7.356.336c0 .912-.016 1.92.032 5.024.016 1.248.064 2.272 1.504 2.24 1.28 0 1.6-.512 1.744-.672.048-1.392-.048-4.432-.08-6.544.352 0 .688 0 .992-.016 1.024-.032 1.376-.64 1.36-1.488-.016-.96-.8-1.472-1.888-1.472h-3.04c-2.416.016-2.576.016-2.768 0-.448 1.888-.176 2.896 1.664 2.928h.48zm12.143-2.864c-1.12-.112-3.824-.064-5.696.016.208 2.128.224 4.864.192 6.8.032 1.856-.128 3.152 1.824 3.28 1.28.096 2 .096 3.152 0 1.568-.128 2.208-.976 1.456-2.832-1.296.192-2.496.24-3.248.096 0-.224-.032-.928 0-1.104.72 0 1.504-.032 2.192-.032 1.424 0 1.28-2.288-.016-2.288-.928-.048-1.344.048-2.208-.032V44.48c.976-.08 1.408-.032 2.224 0 1.536.048 1.536-2.32.128-2.64zm4.998-3.488c-1.056.688-.992 1.728-.24 2.352.848.608 2.512.416 3.632-.08 1.024-.464 1.424-1.52.336-2.304-1.616.848-2.688.416-3.728.032zm5.696 4.848c0-.96-.608-1.424-1.568-1.424-1.12 0-1.696.288-2.032 1.312-.4 1.248-.992 3.168-1.328 4.496 0-.576.096-3.968.096-4.384 0-1.056-.56-1.424-1.504-1.424-.656 0-1.824.416-1.824.416.096.72.176 1.136.192 2.08.032.992 0 2.576.096 5.712.048 1.536.544 2.048 1.792 2 2.24-.08 2.384-4.208 2.992-5.712 0 .688-.032 3.072-.032 3.872 0 1.088.096 1.84 1.36 1.84 1.088 0 1.712-.368 1.904-.704-.128-.48-.176-3.392-.176-5.68 0-1.008.016-1.888.032-2.4zm9.27 5.472c-.08-.96-.657-1.904-2.24-1.984.975-.128 2.32-2.368 1.743-4.032-.48-1.344-1.92-.816-2.768-.56-.16 1.28.208 3.632-1.216 3.936-.064-.672.064-1.792-.112-2.96-.336-1.936-2.704-1.04-3.248-.8.208 2.144.176 2.72.176 5.296.016.88-.08 2.272 0 3.024.224 2 2.608 1.472 3.264.784 0-.848-.016-2.576-.064-3.536 1.056-.08 1.248.224 1.28 2.464.016 2.24 2.672 1.824 3.456 1.056-.272-.832-.192-1.888-.272-2.688zm9.707 2.624c-.224-.624-.208-.928-.256-1.824-.128-2.336-.16-4.592-.928-6.144-1.296-2.288-4.64-1.664-6.256-.512-.144 2.768-.624 3.904-.928 6.992-.224 2.256 1.664 2.88 3.424 1.776 0-.272 0-1.216.08-1.44.208 0 .992.016 1.296.016 0 0-.08.928.368 1.424.8.912 2.64.64 3.2-.288zm-4.752-3.152c.112-.864.112-2.656.16-3.04.08-.064.624-.032.688.048.192.752.192 2.128.24 2.992h-1.088z" fill="#1A212F"/><path d="M39 6.995L45.576.42C46.47-.476 48 .158 48 1.423v17.573c0-5.7-4.513-9.166-9-12z" fill="#FF7236"/><path d="M48 18.997c0 8.837-7.163 16.001-16 16.001-8.836 0-16-7.164-16-16.001 0-8.838 7.164-15.002 16-15.002 8.837 0 16 6.164 16 15.002z" fill="#FFAA50"/><path d="M25 18.996c0-7.701 4.422-13.37 10.31-14.7A18.328 18.328 0 0032 3.995c-2.944 0-5.694.697-8.063 1.937L18.424.419C17.53-.476 16 .158 16 1.423v17.573c0-.36 0-.358 0 0 0 8.838 7.163 16.002 16 16.002 1.135 0 2.242-.122 3.31-.347C29.422 33.125 25 26.698 25 18.996z" fill="#FF7236"/><path d="M28.5 28.997c1.933 0 3.5-1.343 3.5-3s-1.567-3-3.5-3-3.5 1.343-3.5 3 1.567 3 3.5 3zm7 0c1.933 0 3.5-1.343 3.5-3s-1.567-3-3.5-3-3.5 1.343-3.5 3 1.567 3 3.5 3z" fill="#FFFDFB"/><path d="M32 25.998a2 2 0 100-4 2 2 0 000 4z" fill="#FF913C"/><path d="M26 19.997a1 1 0 01-1-1v-1a1 1 0 112 0v1a1 1 0 01-1 1zm12 0a1 1 0 01-1-1v-1a1 1 0 112 0v1a1 1 0 01-1 1z" fill="#1A212F"/></svg>