<svg xmlns="http://www.w3.org/2000/svg" width="24.149" height="24.38"><path data-name="Path 1" d="M23.98 20.746a6.825 6.825 0 01-2.933 3.231 7.048 7.048 0 01-1.268.4c-.5-.15-.967-.251-1.4-.433a31.916 31.916 0 01-12.028-8.038 31.208 31.208 0 01-4.6-7.04C1.16 7.666.663 6.419.151 5.18c-.463-1.13.219-2.3.936-3.149A7.394 7.394 0 013.564.17a1.59 1.59 0 011.989.472 25.655 25.655 0 013.078 4.307 2.05 2.05 0 01-.575 2.777c-.233.158-.445.344-.662.523a2.169 2.169 0 00-.5.527 1.443 1.443 0 00-.1 1.268 11.471 11.471 0 006.442 7.132 3.279 3.279 0 001.651.4c1.009-.118 1.336-1.225 2.043-1.8a1.925 1.925 0 012.319-.1c.745.471 1.467.977 2.184 1.489a25 25 0 012.055 1.565 1.631 1.631 0 01.492 2.016z"/></svg>