<svg width="16" height="16" fill="none" xmlns="http://www.w3.org/2000/svg"><path d="M16 7.871c0 2.103-.832 4.08-2.343 5.566A8.014 8.014 0 018 15.743a8.046 8.046 0 01-4.172-1.153l.917-.902A6.795 6.795 0 008 14.513c3.722 0 6.75-2.98 6.75-6.642 0-1.16-.305-2.252-.838-3.203l.917-.902A7.727 7.727 0 0116 7.871zM.91 15.716l-.883-.87 1.891-1.86A7.738 7.738 0 010 7.87c0-2.1.832-4.078 2.343-5.565A8.014 8.014 0 018 0a8.02 8.02 0 015.198 1.887l1.891-1.86.884.869L.911 15.716zm1.898-3.606l9.5-9.347A6.785 6.785 0 008 1.23c-3.722 0-6.75 2.98-6.75 6.641 0 1.61.586 3.088 1.558 4.24z" fill="#777"/></svg>