<svg xmlns="http://www.w3.org/2000/svg" width="25.538" height="28.107"><path data-name="Path 1" d="M19.8.666a37.473 37.473 0 00-14.063 0A8.113 8.113 0 00.626 5.56a26.9 26.9 0 000 11.541 8.113 8.113 0 005.111 4.894.193.193 0 01.157.189v5.61a.312.312 0 00.537.215l2.665-2.735 2.505-2.572a.191.191 0 01.142-.058 37.511 37.511 0 008.055-.651 8.111 8.111 0 005.111-4.894 26.867 26.867 0 000-11.541A8.109 8.109 0 0019.8.666zm.071 16.721a4.326 4.326 0 01-1.862 2.048 4.467 4.467 0 01-.8.256c-.314-.1-.613-.159-.891-.275a20.229 20.229 0 01-7.624-5.1 19.781 19.781 0 01-2.916-4.463c-.374-.761-.69-1.551-1.011-2.337a2.027 2.027 0 01.593-2 4.687 4.687 0 011.57-1.18 1.008 1.008 0 011.261.3 16.261 16.261 0 011.951 2.73 1.3 1.3 0 01-.364 1.76c-.148.1-.282.218-.42.331a1.375 1.375 0 00-.317.334.915.915 0 00-.061.8 7.27 7.27 0 004.083 4.521 2.078 2.078 0 001.046.254c.64-.075.847-.776 1.295-1.143a1.22 1.22 0 011.47-.064c.472.3.93.619 1.384.943a15.85 15.85 0 011.3.992 1.034 1.034 0 01.313 1.293zm-3.715-6.707h-.041a.46.46 0 01-.475-.455 4.74 4.74 0 00-.088-.6 1.692 1.692 0 00-.624-.98 1.627 1.627 0 00-.509-.245c-.231-.067-.471-.048-.7-.1a.43.43 0 01-.349-.5.452.452 0 01.477-.364 2.588 2.588 0 012.651 2.578 1.194 1.194 0 010 .365.375.375 0 01-.315.3c.006-.002.004-.002-.027-.002zm-.907-3.929a5.135 5.135 0 00-1.423-.437c-.214-.035-.431-.057-.647-.087a.41.41 0 01-.388-.46.4.4 0 01.451-.4 5.917 5.917 0 012.466.642 4.987 4.987 0 012.714 3.876c.012.079.031.157.037.236.015.2.024.392.039.65a1.74 1.74 0 01-.037.262.427.427 0 01-.8.044 1.139 1.139 0 01-.045-.364 4.559 4.559 0 00-.577-2.287 4.258 4.258 0 00-1.791-1.676zm4.825 5.387c-.3 0-.437-.249-.457-.519-.039-.536-.066-1.074-.139-1.6a6.725 6.725 0 00-5.416-5.621c-.42-.075-.85-.095-1.275-.139-.269-.028-.621-.045-.681-.379a.459.459 0 01.453-.518h.218c3.615.1.221.008.01 0a7.647 7.647 0 017.508 6.324c.113.634.153 1.282.2 1.926a.452.452 0 01-.421.525z"/></svg>