<svg data-name="002-instagram-logo" xmlns="http://www.w3.org/2000/svg" width="38.25" height="38.25"><path data-name="Path 4" d="M27.694 0H10.555A10.568 10.568 0 000 10.556v17.138A10.567 10.567 0 0010.555 38.25h17.139A10.568 10.568 0 0038.25 27.694V10.556A10.568 10.568 0 0027.694 0zm7.162 27.694a7.17 7.17 0 01-7.162 7.162H10.555a7.17 7.17 0 01-7.162-7.162V10.556a7.17 7.17 0 017.162-7.162h17.139a7.17 7.17 0 017.162 7.162v17.138z"/><path data-name="Path 5" d="M19.125 9.269a9.856 9.856 0 109.856 9.856 9.867 9.867 0 00-9.856-9.856zm0 16.318a6.462 6.462 0 116.462-6.462 6.469 6.469 0 01-6.462 6.462z"/><path data-name="Path 6" d="M29.395 6.392a2.487 2.487 0 101.76.729 2.5 2.5 0 00-1.76-.729z"/></svg>