<svg xmlns="http://www.w3.org/2000/svg" width="24.149" height="24.38" viewBox="0 0 24.149 24.38">
  <path id="Path_1" data-name="Path 1" d="M134.525,125.613a6.825,6.825,0,0,1-2.933,3.231,7.048,7.048,0,0,1-1.268.4c-.5-.15-.967-.251-1.4-.433a31.916,31.916,0,0,1-12.028-8.038,31.208,31.208,0,0,1-4.6-7.04c-.591-1.2-1.088-2.447-1.6-3.686-.463-1.13.219-2.3.936-3.149a7.394,7.394,0,0,1,2.477-1.861,1.59,1.59,0,0,1,1.989.472,25.655,25.655,0,0,1,3.078,4.307,2.05,2.05,0,0,1-.575,2.777c-.233.158-.445.344-.662.523a2.169,2.169,0,0,0-.5.527,1.443,1.443,0,0,0-.1,1.268,11.471,11.471,0,0,0,6.442,7.132,3.279,3.279,0,0,0,1.651.4c1.009-.118,1.336-1.225,2.043-1.8a1.925,1.925,0,0,1,2.319-.1c.745.471,1.467.977,2.184,1.489a25,25,0,0,1,2.055,1.565A1.631,1.631,0,0,1,134.525,125.613Z" transform="translate(-110.545 -104.867)"/>
</svg>
