<svg xmlns="http://www.w3.org/2000/svg" width="30.924" height="26.925" viewBox="0 0 30.924 26.925">
  <path id="XMLID_497_" d="M.546,32.311,7.672,34.97l2.758,8.87a.839.839,0,0,0,1.332.4L15.734,41a1.185,1.185,0,0,1,1.444-.04l7.164,5.2a.84.84,0,0,0,1.316-.508l5.248-25.243a.84.84,0,0,0-1.125-.954L.538,30.74A.84.84,0,0,0,.546,32.311Zm9.439,1.244,13.926-8.577a.243.243,0,0,1,.293.384L12.711,36.045a2.382,2.382,0,0,0-.738,1.426l-.392,2.9a.36.36,0,0,1-.7.051L9.373,35.132A1.4,1.4,0,0,1,9.985,33.555Z" transform="translate(0 -19.401)"/>
</svg>
