<svg id="viber" xmlns="http://www.w3.org/2000/svg" width="25.837" height="28.436" viewBox="0 0 25.837 28.436">
  <path id="Path_1" data-name="Path 1" d="M124.023,99.6a37.912,37.912,0,0,0-14.228,0,8.208,8.208,0,0,0-5.171,4.952,27.215,27.215,0,0,0,0,11.676,8.208,8.208,0,0,0,5.171,4.952h0a.2.2,0,0,1,.159.191v5.676a.316.316,0,0,0,.543.218l2.7-2.767,2.535-2.6a.193.193,0,0,1,.144-.058,37.95,37.95,0,0,0,8.15-.658,8.206,8.206,0,0,0,5.171-4.952,27.183,27.183,0,0,0,0-11.676A8.2,8.2,0,0,0,124.023,99.6Zm.072,16.917a4.377,4.377,0,0,1-1.881,2.072,4.519,4.519,0,0,1-.813.259c-.317-.1-.62-.161-.9-.278a20.467,20.467,0,0,1-7.713-5.155,20.013,20.013,0,0,1-2.95-4.515c-.379-.77-.7-1.569-1.023-2.364a2.051,2.051,0,0,1,.6-2.019A4.742,4.742,0,0,1,111,103.32a1.02,1.02,0,0,1,1.276.3,16.452,16.452,0,0,1,1.974,2.762,1.315,1.315,0,0,1-.368,1.781c-.149.1-.285.221-.425.335a1.391,1.391,0,0,0-.32.338.925.925,0,0,0-.062.813,7.356,7.356,0,0,0,4.131,4.574,2.1,2.1,0,0,0,1.059.257c.647-.076.857-.785,1.31-1.156a1.235,1.235,0,0,1,1.487-.065c.478.3.94.627,1.4.955a16.035,16.035,0,0,1,1.318,1A1.046,1.046,0,0,1,124.1,116.514Zm-3.759-6.786c-.181,0-.11,0-.041,0a.465.465,0,0,1-.481-.46,4.8,4.8,0,0,0-.089-.608,1.712,1.712,0,0,0-.631-.991,1.646,1.646,0,0,0-.515-.248c-.234-.067-.476-.049-.71-.106a.435.435,0,0,1-.354-.5.458.458,0,0,1,.483-.368,2.618,2.618,0,0,1,2.682,2.608,1.207,1.207,0,0,1,0,.369.379.379,0,0,1-.318.308C120.37,109.725,120.367,109.726,120.336,109.728Zm-.918-3.975a5.2,5.2,0,0,0-1.44-.442c-.217-.036-.436-.058-.654-.088a.414.414,0,0,1-.393-.466.409.409,0,0,1,.456-.4,5.986,5.986,0,0,1,2.495.65,5.046,5.046,0,0,1,2.746,3.921c.012.08.031.159.037.239.015.2.024.4.04.657a1.758,1.758,0,0,1-.037.265.432.432,0,0,1-.814.044,1.151,1.151,0,0,1-.046-.368,4.612,4.612,0,0,0-.583-2.314A4.308,4.308,0,0,0,119.418,105.752Zm4.882,5.45c-.305,0-.443-.252-.462-.526-.039-.542-.066-1.086-.141-1.624a6.8,6.8,0,0,0-5.48-5.687c-.425-.076-.86-.1-1.29-.141-.272-.029-.628-.045-.689-.383a.465.465,0,0,1,.459-.524c.073,0,.147,0,.221,0,3.657.1.223.008.01,0a7.736,7.736,0,0,1,7.6,6.4c.114.641.155,1.3.206,1.948A.457.457,0,0,1,124.3,111.2Z" transform="translate(-103.991 -98.923)"/>
</svg>
